<svg version="1.2" baseProfile="tiny-ps" xmlns="http://www.w3.org/2000/svg" viewBox="0 0 24 24" width="24" height="24">
	<title>delete-svg</title>
	<style>
		tspan { white-space:pre }
		.shp0 { fill: none;stroke: #ffffff;stroke-linecap:round;stroke-linejoin:round;stroke-width: 1.5 } 
	</style>
	<path class="shp0" d="M3 6L5 6L21 6" />
	<path class="shp0" d="M8 6L8 4C8 3.47 8.21 2.96 8.59 2.59C8.96 2.21 9.47 2 10 2L14 2C14.53 2 15.04 2.21 15.41 2.59C15.79 2.96 16 3.47 16 4L16 6M19 6L19 20C19 20.53 18.79 21.04 18.41 21.41C18.04 21.79 17.53 22 17 22L7 22C6.47 22 5.96 21.79 5.59 21.41C5.21 21.04 5 20.53 5 20L5 6L19 6Z" />
</svg>