<svg version="1.2" baseProfile="tiny-ps" xmlns="http://www.w3.org/2000/svg" viewBox="0 0 22 22" width="22" height="22">
	<title>Layer</title>
	<style>
		tspan { white-space:pre }
		.shp0 { fill: none;stroke: #ffffff;stroke-linecap:round;stroke-linejoin:round;stroke-width: 1.5 } 
	</style>
	<path id="Layer" class="shp0" d="M6 21L3 21C2.47 21 1.96 20.79 1.59 20.41C1.21 20.04 1 19.53 1 19L1 12C1 11.47 1.21 10.96 1.59 10.59C1.96 10.21 2.47 10 3 10L6 10M13 8L13 4C13 3.2 12.68 2.44 12.12 1.88C11.56 1.32 10.8 1 10 1L6 10L6 21L17.28 21C17.76 21.01 18.23 20.84 18.6 20.52C18.97 20.21 19.21 19.78 19.28 19.3L20.66 10.3C20.7 10.01 20.68 9.72 20.6 9.44C20.52 9.16 20.38 8.91 20.19 8.69C20 8.47 19.77 8.29 19.5 8.18C19.24 8.06 18.95 8 18.66 8L13 8Z" />
</svg>